<?xml version="1.0" standalone="no"?>
<!DOCTYPE svg PUBLIC "-//W3C//DTD SVG 20010904//EN"
 "http://www.w3.org/TR/2001/REC-SVG-20010904/DTD/svg10.dtd">
<svg version="1.0" xmlns="http://www.w3.org/2000/svg"
 width="512.000000pt" height="512.000000pt" viewBox="0 0 512.000000 512.000000"
 preserveAspectRatio="xMidYMid meet">

<g transform="translate(0.000000,512.000000) scale(0.100000,-0.100000)"
fill="#000000" stroke="none">
<path d="M603 5110 c-39 -16 -43 -40 -43 -259 l0 -211 -255 0 -256 0 -24 -25
-25 -24 0 -1471 0 -1471 25 -24 24 -25 1271 0 1271 0 24 25 25 24 0 1471 0
1471 -25 24 -24 25 -256 0 -255 0 0 215 c0 216 0 216 -25 240 l-24 25 -703 -1
c-387 0 -713 -4 -725 -9z m1106 -154 c-2 -2 -89 -56 -194 -121 -156 -96 -193
-115 -210 -107 -18 8 -364 219 -374 228 -2 2 173 4 389 4 216 0 391 -2 389 -4z
m-741 -212 l237 -146 -4 -96 c-1 -53 -8 -110 -15 -125 l-11 -29 -227 149 -227
148 -1 123 c0 67 3 122 6 122 3 0 112 -66 242 -146z m952 24 l-1 -123 -221
-145 c-122 -80 -225 -146 -229 -148 -4 -2 -19 34 -34 79 -22 66 -26 89 -19
121 9 40 13 43 249 189 132 81 243 148 248 148 4 1 7 -54 7 -121z m-721 -1815
l1 -1193 -520 0 -520 0 0 1360 0 1360 258 2 257 3 262 -170 262 -170 0 -1192z
m1281 167 l0 -1360 -560 0 -560 0 0 1204 0 1204 31 -15 c41 -20 37 -22 333
174 l240 158 258 -3 258 -3 0 -1359z"/>
<path d="M1545 3895 l-25 -24 0 -511 0 -511 25 -24 24 -25 391 0 391 0 24 25
25 24 0 511 0 511 -25 24 -24 25 -391 0 -391 0 -24 -25z m695 -175 l0 -40
-280 0 -280 0 0 40 0 40 280 0 280 0 0 -40z m0 -480 l0 -280 -280 0 -280 0 0
280 0 280 280 0 280 0 0 -280z"/>
<path d="M2745 5095 l-25 -24 0 -2511 0 -2511 25 -24 24 -25 471 0 471 0 23
23 c28 28 17 -154 107 1720 41 834 76 1517 79 1517 3 0 38 -683 79 -1517 90
-1874 79 -1692 107 -1720 l23 -23 471 0 471 0 24 25 25 24 0 2511 0 2511 -25
24 -24 25 -1151 0 -1151 0 -24 -25z m775 -215 l0 -80 -320 0 -320 0 0 80 0 80
320 0 320 0 0 -80z m640 0 l0 -80 -240 0 -240 0 0 80 0 80 240 0 240 0 0 -80z
m800 0 l0 -80 -320 0 -320 0 0 80 0 80 320 0 320 0 0 -80z m-1120 -839 l0
-599 -25 -6 c-55 -14 -49 62 -130 -1641 -42 -875 -79 -1600 -81 -1612 l-4 -23
-360 0 -360 0 0 2240 0 2240 480 0 480 0 0 -599z m1120 -1641 l0 -2240 -360 0
-360 0 -4 23 c-2 12 -39 737 -81 1612 -81 1704 -75 1627 -130 1641 l-25 6 0
599 0 599 480 0 480 0 0 -2240z"/>
<path d="M4665 1095 c-22 -21 -25 -33 -25 -95 0 -62 3 -74 25 -95 15 -16 36
-25 55 -25 19 0 40 9 55 25 22 21 25 33 25 95 0 62 -3 74 -25 95 -15 16 -36
25 -55 25 -19 0 -40 -9 -55 -25z"/>
<path d="M4665 775 c-22 -21 -25 -33 -25 -95 0 -62 3 -74 25 -95 32 -33 78
-33 110 0 22 21 25 33 25 95 0 62 -3 74 -25 95 -15 16 -36 25 -55 25 -19 0
-40 -9 -55 -25z"/>
<path d="M4665 455 c-22 -21 -25 -33 -25 -95 0 -62 3 -74 25 -95 32 -33 78
-33 110 0 22 21 25 33 25 95 0 62 -3 74 -25 95 -15 16 -36 25 -55 25 -19 0
-40 -9 -55 -25z"/>
<path d="M342 1109 c-112 -22 -232 -110 -287 -210 -50 -92 -55 -131 -55 -422
l0 -268 25 -24 24 -25 591 0 591 0 24 25 25 24 0 260 c0 152 -5 282 -11 313
-34 161 -173 297 -339 328 -63 12 -526 11 -588 -1z m458 -209 l0 -60 -160 0
-160 0 0 60 0 60 160 0 160 0 0 -60z m-451 -201 c22 -18 42 -19 293 -19 l269
0 24 25 c23 23 25 31 25 130 0 104 0 106 21 95 35 -19 94 -84 114 -125 14 -29
20 -68 23 -142 l4 -103 -481 0 -481 0 0 83 c0 133 33 210 114 267 l41 28 5
-110 c5 -100 7 -112 29 -129z m771 -339 l0 -40 -480 0 -480 0 0 40 0 40 480 0
480 0 0 -40z"/>
<path d="M1702 1109 c-112 -22 -232 -110 -287 -210 -50 -92 -55 -131 -55 -422
l0 -268 25 -24 24 -25 591 0 591 0 24 25 25 24 0 260 c0 152 -5 282 -11 313
-34 161 -173 297 -339 328 -63 12 -526 11 -588 -1z m458 -209 l0 -60 -160 0
-160 0 0 60 0 60 160 0 160 0 0 -60z m-451 -201 c22 -18 42 -19 293 -19 l269
0 24 25 c23 23 25 31 25 130 0 104 0 106 21 95 35 -19 94 -84 114 -125 14 -29
20 -68 23 -142 l4 -103 -481 0 -481 0 0 83 c0 133 33 210 114 267 l41 28 5
-110 c5 -100 7 -112 29 -129z m771 -339 l0 -40 -480 0 -480 0 0 40 0 40 480 0
480 0 0 -40z"/>
</g>
</svg>
