<?xml version="1.0" standalone="no"?>
<!DOCTYPE svg PUBLIC "-//W3C//DTD SVG 20010904//EN"
 "http://www.w3.org/TR/2001/REC-SVG-20010904/DTD/svg10.dtd">
<svg version="1.0" xmlns="http://www.w3.org/2000/svg"
 width="512.000000pt" height="512.000000pt" viewBox="0 0 512.000000 512.000000"
 preserveAspectRatio="xMidYMid meet">

<g transform="translate(0.000000,512.000000) scale(0.100000,-0.100000)"
fill="#000000" stroke="none">
<path d="M1550 4955 c-118 -24 -251 -78 -337 -136 -106 -72 -281 -221 -287
-244 -14 -54 34 -105 86 -92 13 4 79 52 148 107 132 107 255 176 365 206 41
11 118 18 241 21 l181 5 16 -68 c37 -149 127 -279 251 -362 136 -91 280 -126
428 -103 107 17 173 42 264 103 124 83 214 213 251 362 l16 68 181 -5 c125 -3
199 -9 241 -21 72 -20 189 -74 247 -114 96 -67 1094 -884 1110 -910 18 -27 22
-73 10 -104 -4 -9 -69 -93 -145 -187 -146 -180 -172 -200 -237 -186 -18 4
-191 137 -447 346 -455 369 -457 370 -502 313 -19 -24 -21 -40 -21 -185 l0
-159 -1050 0 -1050 0 0 159 c0 145 -2 161 -21 185 -45 57 -47 56 -502 -314
-300 -244 -427 -341 -451 -345 -63 -12 -92 11 -239 193 -146 181 -162 212
-138 271 8 19 116 112 317 276 168 136 310 258 316 271 25 54 -33 119 -86 99
-41 -16 -636 -505 -661 -544 -49 -74 -57 -189 -19 -263 23 -47 280 -363 323
-399 77 -64 195 -73 290 -24 25 13 197 147 381 298 l335 273 5 -590 5 -591 27
-57 c34 -73 103 -142 176 -176 57 -27 59 -27 325 -30 179 -2 267 -7 267 -14 0
-6 -119 -359 -265 -785 -300 -878 -292 -845 -234 -962 41 -82 93 -120 222
-164 56 -19 228 -78 383 -131 290 -99 334 -108 414 -86 55 15 122 62 153 107
19 27 109 278 266 736 268 781 250 731 256 726 2 -3 113 -322 245 -709 132
-387 250 -719 261 -737 30 -48 95 -100 147 -117 92 -32 123 -25 515 108 200
68 382 133 403 144 91 47 148 145 148 252 0 54 -12 99 -72 275 -40 116 -79
217 -87 225 -23 23 -84 18 -106 -9 -11 -13 -19 -32 -19 -43 0 -11 32 -114 71
-229 79 -230 81 -254 31 -310 -23 -24 -84 -49 -391 -154 -201 -69 -381 -125
-400 -125 -44 0 -95 30 -114 67 -8 15 -117 327 -242 693 -125 366 -236 689
-247 718 -32 87 -111 129 -191 103 -74 -25 -77 -30 -321 -746 -279 -817 -260
-765 -295 -799 -57 -54 -77 -51 -468 83 -194 66 -361 124 -370 130 -38 20 -65
60 -70 104 -5 38 30 148 266 838 150 437 275 797 279 801 4 4 268 9 587 10
l580 3 57 27 c102 47 184 153 203 261 l7 37 252 0 252 0 209 -612 c115 -337
217 -620 227 -630 35 -35 99 -18 116 30 12 35 34 -34 -297 932 -139 404 -264
755 -278 780 -78 135 -225 210 -415 210 l-68 0 0 207 0 206 23 -20 c92 -83
671 -545 703 -561 91 -46 210 -34 286 28 42 35 299 352 322 398 38 74 30 189
-19 263 -23 35 -1021 855 -1150 945 -108 75 -225 123 -363 150 -104 20 -1913
19 -2012 -1z m1464 -162 c-3 -16 -21 -60 -39 -98 -85 -178 -292 -288 -482
-257 -92 15 -198 69 -262 133 -50 51 -112 160 -125 222 l-6 27 460 0 460 0 -6
-27z m596 -1538 l0 -205 -1050 0 -1050 0 0 205 0 205 1050 0 1050 0 0 -205z
m344 -79 c62 -19 118 -58 148 -104 22 -33 108 -259 108 -283 0 -5 -92 -9 -225
-9 l-225 0 0 205 0 205 73 0 c41 0 95 -6 121 -14z m-344 -419 c0 -133 -2 -147
-25 -194 -16 -32 -41 -61 -67 -79 l-41 -29 -917 0 -917 0 -41 29 c-26 18 -51
47 -67 79 -23 47 -25 61 -25 194 l0 143 1050 0 1050 0 0 -143z"/>
</g>
</svg>
